Coordinates
version=1
nRows=9
nColumns=24
inDegrees=yes

Units are S.I. units (second, meters, Newtons, ...)
Angles are in degrees.

endheader
time	pelvis_tilt	pelvis_list	pelvis_rotation	pelvis_tx	pelvis_ty	pelvis_tz	hip_flexion_r	hip_adduction_r	hip_rotation_r	knee_angle_r	ankle_angle_r	subtalar_angle_r	mtp_angle_r	hip_flexion_l	hip_adduction_l	hip_rotation_l	knee_angle_l	ankle_angle_l	subtalar_angle_l	mtp_angle_l	lumbar_extension	lumbar_bending	lumbar_rotation
      1.05433333	     -0.45104386	     -0.67008292	     -4.60950174	     -0.00974315	      0.96931366	      0.30766768	    -13.23082913	      3.40772656	     -4.34726784	    -11.11527888	     16.51745611	      2.88452136	      5.03363827	     24.99140203	      0.17518617	     -5.94978359	     -0.89692991	      2.27881015	     -2.08281592	     -1.15812877	     -1.65993460	      4.52227658	      7.29622930
      1.05850000	     -0.49015514	     -0.58360448	     -4.66733925	     -0.00367672	      0.96873811	      0.30744524	    -13.28657565	      3.23668937	     -4.32457896	    -11.64093671	     16.46462023	      2.82990339	      5.04493970	     24.94631189	      0.31710458	     -6.01280996	     -0.97537034	      2.15056670	     -2.19084902	     -1.11798482	     -1.56324330	      4.41610234	      7.30448964
      1.06266667	     -0.58239908	     -0.50186803	     -4.73278482	      0.00234224	      0.96812730	      0.30719894	    -13.22311427	      3.06422777	     -4.32904545	    -12.28862419	     16.51387641	      2.90976668	      5.09885705	     24.94852047	      0.45208306	     -5.93079238	     -1.08683325	      1.91031862	     -2.55609831	     -0.99426083	     -1.42726865	      4.33155212	      7.42592743
      1.06683333	     -0.63173837	     -0.38308613	     -4.77955545	      0.00846767	      0.96762968	      0.30696011	    -13.23077149	      2.86041877	     -4.30354863	    -12.88088490	     16.41452183	      2.85916399	      5.13473039	     24.92147614	      0.62531877	     -5.93469817	     -1.29023972	      1.68895584	     -2.80408774	     -0.92144784	     -1.31526734	      4.17321994	      7.46312161
      1.07100000	     -0.73036061	     -0.30318681	     -4.83256296	      0.01453153	      0.96710963	      0.30670238	    -13.12960069	      2.69411273	     -4.28996371	    -13.58202525	     16.36616277	      2.86283563	      5.23331256	     24.94484321	      0.75731444	     -5.81043421	     -1.53132613	      1.36153073	     -3.32710967	     -0.76214894	     -1.15830274	      4.09455935	      7.56593950
      1.07516667	     -0.81576406	     -0.19321991	     -4.87596280	      0.02067100	      0.96666804	      0.30644654	    -13.04359493	      2.50168232	     -4.24693730	    -14.27766103	     16.24165926	      2.77482959	      5.34623139	     24.95877756	      0.91834555	     -5.72931992	     -1.82466786	      1.00435019	     -3.77263244	     -0.60082244	     -1.00463617	      3.96229985	      7.61795147
      1.07933333	     -0.90065266	     -0.08002879	     -4.91036594	      0.02683140	      0.96626917	      0.30617230	    -12.93883686	      2.30790921	     -4.19752329	    -15.00463954	     16.07961021	      2.65782814	      5.48268567	     24.97605089	      1.08447163	     -5.62360393	     -2.16143765	      0.61511695	     -4.25238402	     -0.43103407	     -0.85586926	      3.83586313	      7.66715342
      1.08350000	     -0.99416899	      0.03894433	     -4.94149441	      0.03301635	      0.96590953	      0.30590581	    -12.79956439	      2.11081606	     -4.13976249	    -15.77818017	     15.87940339	      2.50868526	      5.64570325	     25.00350364	      1.25377855	     -5.50573153	     -2.52851542	      0.17197458	     -4.76412137	     -0.25249373	     -0.67390701	      3.68489020	      7.71022238
      1.08766667	     -1.09854631	      0.15895925	     -4.96702701	      0.03921628	      0.96558810	      0.30562732	    -12.62504316	      1.91516236	     -4.07085298	    -16.58874478	     15.63196521	      2.32719999	      5.83913473	     25.04819446	      1.42334474	     -5.37473704	     -2.93247635	     -0.30043664	     -5.29383182	     -0.06545407	     -0.48568033	      3.54091606	      7.74387846
